<svg width="20" height="20" viewBox="0 0 20 20" fill="none" xmlns="http://www.w3.org/2000/svg">
<path d="M15.2734 18.75C14.5109 18.75 13.4398 18.4742 11.8359 17.5781C9.88554 16.4844 8.37695 15.4746 6.4371 13.5398C4.56679 11.6707 3.65663 10.4606 2.38281 8.14258C0.943744 5.52539 1.18906 4.15352 1.46328 3.56719C1.78984 2.86641 2.27187 2.44727 2.89492 2.03125C3.2488 1.79939 3.6233 1.60064 4.01367 1.4375C4.05273 1.42071 4.08906 1.40469 4.12148 1.39024C4.31484 1.30313 4.60781 1.17149 4.9789 1.31211C5.22656 1.40508 5.44765 1.59532 5.79374 1.93711C6.50351 2.63711 7.47343 4.1961 7.83124 4.96172C8.07148 5.47774 8.23046 5.81836 8.23085 6.20039C8.23085 6.64766 8.00585 6.99258 7.73281 7.36485C7.68163 7.43477 7.63085 7.50157 7.58163 7.56641C7.28437 7.95704 7.21913 8.06993 7.2621 8.27149C7.34921 8.67657 7.99882 9.88243 9.0664 10.9477C10.134 12.0129 11.3051 12.6215 11.7117 12.7082C11.9219 12.7531 12.0371 12.6852 12.4402 12.3773C12.498 12.3332 12.5574 12.2875 12.6195 12.2418C13.0359 11.932 13.3648 11.7129 13.8016 11.7129H13.8039C14.184 11.7129 14.5094 11.8777 15.0484 12.1496C15.7516 12.5043 17.3574 13.4617 18.0617 14.1723C18.4043 14.5176 18.5953 14.7379 18.6887 14.9852C18.8293 15.3574 18.6969 15.6492 18.6105 15.8445C18.5961 15.877 18.5801 15.9125 18.5633 15.952C18.3989 16.3416 18.1989 16.7153 17.966 17.0684C17.5508 17.6895 17.1301 18.1703 16.4277 18.4973C16.0671 18.6679 15.6724 18.7543 15.2734 18.75Z" fill="#314250"/>
</svg>
